<svg width="151" height="56" viewBox="0 0 151 56" fill="none" xmlns="http://www.w3.org/2000/svg">
<g clip-path="url(#clip0_512_2494)">
<path d="M50.6651 13.1537C47.528 8.78472 42.5531 4.89097 36.9876 2.4548C31.1859 -0.0865526 25.4478 -0.687612 21.2381 0.803767C16.1751 2.59943 13.2405 5.51457 10.8665 11.142C9.25948 12.3291 8.04062 13.5669 6.96052 14.6638C6.68487 14.9437 6.41485 15.2179 6.14482 15.4865C1.16812 20.4077 -0.845812 26.3676 0.322419 32.72C1.98757 41.7848 9.72453 49.6042 16.1789 52.3841C16.4226 52.5175 16.6664 52.6471 16.9083 52.771C20.5949 54.6662 24.4652 55.7613 28.1762 55.9642C28.5531 55.9848 28.93 55.9961 29.3051 55.998C35.2944 56.0337 40.2129 54.0614 42.6319 52.8706C46.7254 51.1613 52.1128 47.9006 54.6049 42.0477C60.191 28.9352 54.753 16.6793 50.6632 13.1537H50.6651ZM22.1213 3.53295C23.672 2.98261 25.4497 2.78351 27.3474 2.88682C30.8464 3.0784 34.7524 4.30494 38.3978 6.27529C37.3327 5.93344 36.2563 5.66296 35.1743 5.46386C34.5593 5.35867 33.9217 5.27415 33.2279 5.20841C27.203 4.63365 20.5874 6.11376 14.8906 9.22424C16.6552 6.36169 18.8397 4.69563 22.1213 3.53108V3.53295ZM3.11455 32.196C2.10196 26.6869 3.80274 21.7037 8.17001 17.3855C8.44191 17.1169 8.71381 16.8408 8.98946 16.559C9.09822 16.4482 9.20698 16.3374 9.31761 16.2266C8.3069 18.7435 7.20242 21.5065 6.99428 22.0757H6.98865C4.32778 30.1223 4.94847 37.2205 8.82444 43.2743C6.05857 40.1131 3.85524 36.2269 3.11455 32.196ZM42.0187 47.1098C41.7749 47.3389 41.5087 47.5719 41.2311 47.7973L40.8861 48.0358C39.2191 48.9111 34.8218 50.9096 29.4551 50.9096H29.3276C26.6948 50.8927 22.5451 50.2766 17.7203 47.431C9.54076 41.086 7.15367 33.1821 10.4258 23.2684C10.5327 22.9885 11.4516 20.6801 12.3723 18.3829C13.6586 15.171 16.2051 12.5582 19.3573 11.2153C23.0589 9.63747 26.9423 8.8035 30.5896 8.8035C31.3415 8.8035 32.0934 8.83919 32.8266 8.90868C33.4286 8.96503 33.9705 9.03641 34.4862 9.12469C36.8114 9.55107 39.1235 10.3794 41.3549 11.5872C41.4224 11.6228 41.4862 11.6585 41.5499 11.6961L41.6568 11.7562L44.4789 13.5631L44.6158 13.6627C44.7846 13.7867 44.9496 13.9125 45.1071 14.0346C46.3222 14.9944 47.2748 16.0331 48.3943 17.6165C49.2194 19.1192 49.7463 20.6106 49.9619 22.0531C51.6777 33.5221 45.2271 44.0613 42.0206 47.1079L42.0187 47.1098ZM52.0059 40.8456C50.8151 43.6424 48.8143 45.7668 46.6504 47.3615C50.1138 42.7145 53.5848 34.8989 53.8642 26.6456C54.4792 30.8192 54.1829 35.7385 52.0059 40.8456Z" fill="url(#paint0_linear_512_2494)"/>
<path d="M66.2723 10.124H69.0476V22.4401H66.2723V10.124Z" fill="black"/>
<path d="M80.7974 10.124H83.432V22.4401H80.9024L74.9487 14.523V22.4401H72.2972V10.124H74.8269L80.7993 18.0768V10.124H80.7974Z" fill="black"/>
<path d="M95.2362 10.9073C96.2188 11.4294 96.9839 12.1564 97.5277 13.088C98.0715 14.0196 98.3452 15.0846 98.3452 16.2811C98.3452 17.4776 98.0677 18.5426 97.5108 19.4743C96.9539 20.4078 96.1794 21.1347 95.1837 21.6569C94.188 22.179 93.0516 22.4401 91.7765 22.4401H86.6648V10.124H91.8815C93.1341 10.124 94.2517 10.3851 95.2362 10.9073ZM93.7867 19.6151C94.3305 19.2921 94.7562 18.845 95.0599 18.2684C95.3637 17.6936 95.5175 17.0362 95.5175 16.298C95.5175 15.5599 95.3562 14.8968 95.0356 14.3108C94.713 13.7247 94.2742 13.2702 93.7192 12.9471C93.1623 12.6241 92.5341 12.4644 91.8309 12.4644H89.4419V20.0997H91.9528C92.6316 20.0997 93.2429 19.9382 93.7886 19.6151H93.7867Z" fill="black"/>
<path d="M100.698 10.124H103.474V22.4401H100.698V10.124Z" fill="black"/>
<path d="M114.144 12.7894C113.575 12.502 113.005 12.3574 112.432 12.3574C111.741 12.3574 111.108 12.5283 110.534 12.8683C109.96 13.2082 109.51 13.6722 109.182 14.2582C108.854 14.8443 108.691 15.496 108.691 16.2117C108.691 16.9273 108.854 17.581 109.182 18.1726C109.51 18.7643 109.96 19.2339 110.534 19.5795C111.108 19.9251 111.74 20.0979 112.432 20.0979C112.981 20.0979 113.542 19.9664 114.108 19.7016C114.676 19.4386 115.182 19.0836 115.627 18.6366L117.26 20.4134C116.604 21.0934 115.835 21.6344 114.95 22.0326C114.067 22.4308 113.178 22.6299 112.289 22.6299C111.083 22.6299 109.988 22.3519 109.004 21.794C108.021 21.238 107.247 20.4717 106.686 19.4987C106.123 18.5257 105.842 17.4401 105.842 16.2436C105.842 15.0471 106.129 13.9859 106.703 13.0242C107.277 12.0625 108.064 11.3055 109.066 10.7552C110.067 10.2048 111.175 9.92871 112.394 9.92871C113.285 9.92871 114.162 10.1128 115.029 10.4828C115.895 10.8528 116.632 11.3543 117.241 11.9873L115.625 13.9746C115.203 13.4712 114.708 13.0749 114.142 12.7875L114.144 12.7894Z" fill="black"/>
<path d="M128.519 22.4401L127.553 20.0471H121.862L120.896 22.4401H118.033L123.371 10.124H126.235L131.487 22.4401H128.519ZM122.775 17.812H126.657L124.725 13.026L122.775 17.812Z" fill="#30BDB6"/>
<path d="M133.297 10.124H136.072V22.4401H133.297V10.124Z" fill="#30BDB6"/>
<path d="M147.891 10.9073C148.874 11.4294 149.639 12.1564 150.182 13.088C150.726 14.0196 151 15.0846 151 16.2811C151 17.4776 150.722 18.5426 150.166 19.4743C149.609 20.4078 148.834 21.1347 147.838 21.6569C146.843 22.179 145.706 22.4401 144.431 22.4401H139.32V10.124H144.536C145.789 10.124 146.907 10.3851 147.891 10.9073ZM146.441 19.6151C146.985 19.2921 147.411 18.845 147.715 18.2684C148.019 17.6936 148.172 17.0362 148.172 16.298C148.172 15.5599 148.011 14.8968 147.69 14.3108C147.368 13.7247 146.929 13.2702 146.374 12.9471C145.817 12.6241 145.189 12.4644 144.486 12.4644H142.097V20.0997H144.608C145.286 20.0997 145.898 19.9382 146.443 19.6151H146.441Z" fill="#30BDB6"/>
<path d="M83.1244 40.2617V40.2147C83.0982 36.7943 80.3135 34.02 76.8932 34.02C73.4729 34.02 70.6602 36.8206 70.6602 40.2617C70.6602 43.7027 73.456 46.5033 76.8932 46.5033C78.4384 46.5033 79.8522 45.936 80.9417 45.0006V46.2572H83.1244V40.2598V40.2617ZM76.8913 44.3188C74.658 44.3188 72.841 42.4987 72.841 40.2617C72.841 38.0246 74.658 36.2045 76.8913 36.2045C79.1247 36.2045 80.9417 38.0246 80.9417 40.2617C80.9417 42.4987 79.1247 44.3188 76.8913 44.3188Z" fill="#808285"/>
<path d="M91.5102 34.0257C89.965 34.0257 88.5512 34.5929 87.4598 35.5283V28.7119H85.2771V40.3142C85.3034 43.7347 88.088 46.5089 91.5083 46.5089C94.9286 46.5089 97.7414 43.7084 97.7414 40.2673C97.7414 36.8262 94.9455 34.0257 91.5083 34.0257H91.5102ZM91.5102 44.3244C89.2768 44.3244 87.4598 42.5044 87.4598 40.2673C87.4598 38.0302 89.2768 36.2101 91.5102 36.2101C93.7435 36.2101 95.5605 38.0302 95.5605 40.2673C95.5605 42.5044 93.7435 44.3244 91.5102 44.3244Z" fill="#808285"/>
<path d="M68.4737 28.8679H66.291V46.2874H68.4737V28.8679Z" fill="#808285"/>
<path d="M101.88 45.5808V43.0489H101.102C100.965 43.0489 100.873 42.9643 100.873 42.8347C100.873 42.7051 100.965 42.6206 101.102 42.6206H103.149C103.286 42.6206 103.378 42.7051 103.378 42.8347C103.378 42.9643 103.286 43.0489 103.149 43.0489H102.373V45.5808C102.373 45.7405 102.279 45.8363 102.127 45.8363C101.976 45.8363 101.88 45.7386 101.88 45.5808Z" fill="#808285"/>
<path d="M103.853 45.6016V42.9006C103.853 42.709 103.974 42.5869 104.169 42.5869C104.336 42.5869 104.436 42.662 104.511 42.8461L105.45 45.132H105.467L106.405 42.8461C106.48 42.6639 106.581 42.5869 106.752 42.5869C106.943 42.5869 107.065 42.7052 107.065 42.9006V45.6016C107.065 45.75 106.978 45.8383 106.84 45.8383C106.701 45.8383 106.613 45.75 106.613 45.6016V43.4622H106.598L105.713 45.5978C105.66 45.7256 105.581 45.7838 105.458 45.7838C105.334 45.7838 105.253 45.7275 105.203 45.6035L104.316 43.4641H104.301V45.6035C104.301 45.7519 104.216 45.8402 104.076 45.8402C103.935 45.8402 103.851 45.7519 103.851 45.6035L103.853 45.6016Z" fill="#808285"/>
</g>
<defs>
<linearGradient id="paint0_linear_512_2494" x1="10.604" y1="12.7348" x2="49.1809" y2="47.0926" gradientUnits="userSpaceOnUse">
<stop stop-color="#A8D04E"/>
<stop offset="0.55" stop-color="#3BB773"/>
<stop offset="1" stop-color="#2BABC3"/>
</linearGradient>
<clipPath id="clip0_512_2494">
<rect width="151" height="56" fill="white"/>
</clipPath>
</defs>
</svg>
